HIERARCHY
ROOT Hips
{
  OFFSET 265.287 66.7526 -254.649
  CHANNELS 6 Xposition Yposition Zposition Zrotation Xrotation Yrotation
  JOINT LeftUpLeg
  {
    OFFSET 8.64259 1.95398 -2.38835
    CHANNELS 3 Zrotation Xrotation Yrotation
    JOINT LeftLeg
    {
      OFFSET 43.7702 0 0
      CHANNELS 3 Zrotation Xrotation Yrotation
      JOINT LeftFoot
      {
        OFFSET 40.6238 0 0
        CHANNELS 3 Zrotation Xrotation Yrotation
        JOINT LeftToeBase
        {
          OFFSET 12.7242 0 0
          CHANNELS 3 Zrotation Xrotation Yrotation
          End Site
          {
            OFFSET 0 0 0
          }
        }
      }
    }
  }
  JOINT RightUpLeg
  {
    OFFSET -8.2249 1.95398 -2.59336
    CHANNELS 3 Zrotation Xrotation Yrotation
    JOINT RightLeg
    {
      OFFSET 43.5653 0 0
      CHANNELS 3 Zrotation Xrotation Yrotation
      JOINT RightFoot
      {
        OFFSET 40.6238 0 0
        CHANNELS 3 Zrotation Xrotation Yrotation
        JOINT RightToeBase
        {
          OFFSET 12.7242 0 0
          CHANNELS 3 Zrotation Xrotation Yrotation
          End Site
          {
            OFFSET 0 0 0
          }
        }
      }
    }
  }
  JOINT Spine
  {
    OFFSET 0.165834 0.87714 6.61349
    CHANNELS 3 Zrotation Xrotation Yrotation
    JOINT Spine1
    {
      OFFSET 7.38963 1.71661e-005 0
      CHANNELS 3 Zrotation Xrotation Yrotation
      JOINT Spine2
      {
        OFFSET 11.9445 1.14441e-005 0
        CHANNELS 3 Zrotation Xrotation Yrotation
        JOINT Spine3
        {
          OFFSET 14.7254 4.19617e-005 0
          CHANNELS 3 Zrotation Xrotation Yrotation
          JOINT Spine4
          {
            OFFSET 10.9679 0 0
            CHANNELS 3 Zrotation Xrotation Yrotation
            JOINT RightShoulder
            {
              OFFSET 2.46616 -1.6653 3.69651
              CHANNELS 3 Zrotation Xrotation Yrotation
              JOINT RightArm
              {
                OFFSET 13.0012 0 0
                CHANNELS 3 Zrotation Xrotation Yrotation
                JOINT RightForeArm
                {
                  OFFSET 28.7848 1.52588e-005 0
                  CHANNELS 3 Zrotation Xrotation Yrotation
                  JOINT RightHand
                  {
                    OFFSET 26.5688 1.52588e-005 0
                    CHANNELS 3 Zrotation Xrotation Yrotation
                    End Site
                    {
                      OFFSET 0 0 0
                    }
                  }
                }
              }
            }
            JOINT LeftShoulder
            {
              OFFSET 2.38034 -1.29275 -3.7523
              CHANNELS 3 Zrotation Xrotation Yrotation
              JOINT LeftArm
              {
                OFFSET 16.3182 6.10351e-005 0
                CHANNELS 3 Zrotation Xrotation Yrotation
                JOINT LeftForeArm
                {
                  OFFSET 27.0901 0 0
                  CHANNELS 3 Zrotation Xrotation Yrotation
                  JOINT LeftHand
                  {
                    OFFSET 24.5451 1.52588e-005 0
                    CHANNELS 3 Zrotation Xrotation Yrotation
                    End Site
                    {
                      OFFSET 0 0 0
                    }
                  }
                }
              }
            }
            JOINT Neck
            {
              OFFSET 5.0226 -0.0266342 0
              CHANNELS 3 Zrotation Xrotation Yrotation
              JOINT Head
              {
                OFFSET 6.69364 2.86102e-005 0
                CHANNELS 3 Zrotation Xrotation Yrotation
                End Site
                {
                  OFFSET 0 0 0
                }
              }
            }
          }
        }
      }
    }
  }
}
MOTION
Frames:	7
Frame Time:	0.0416667
236.007 71.8732 241.083 -110.43 19.2742 -67.3453 -109.736 2.61819 174.51 160.083 59.1563 -163.879 35.0064 -13.4472 5.43077 92.4714 -18.8795 3.15464 164.349 25.4133 95.6104 -74.2868 48.0589 1.72329 -146.155 -33.9914 133.41 142.834 23.0039 36.747 -3.95785 16.4167 -91.3343 -6.16447 -8.24118 -3.64131 -17.8134 -8.39329 -3.27316 -40.4699 -6.76647 -5.95519 -20.4573 -6.76645 -5.95519 -93.6793 -70.6507 84.8776 -39.9332 4.36246 -17.5036 -170.3 16.7161 -37.6958 -10.4484 3.37244 -43.175 160.38 -50.9208 -42.4101 4.69351 -50.5096 -144.662 -13.3105 1.50001 -0.0243334 -153.286 -19.9695 0.837415 127.322 -48.5196 9.81506 -41.0899 -42.7074 -3.65385 
236.632 71.9426 241.651 -110.027 18.4905 -67.3344 -110.494 4.53413 174.533 160.225 57.9953 -164.208 36.3974 -13.1327 5.57067 91.2136 -18.3437 3.40115 164.257 25.6688 95.3549 -74.3752 47.3623 2.67404 -145.47 -34.5002 135.031 141.381 24.5342 38.5566 -3.96801 16.4318 -91.4759 -6.20854 -8.30462 -3.92711 -17.8582 -8.46927 -3.55595 -40.5019 -6.74155 -6.246 -20.4892 -6.74156 -6.24599 -93.4415 -70.492 85.0942 -40.2669 5.34219 -17.608 -166.86 20.974 -38.9223 -11.7459 3.77999 -42.9202 160.71 -50.4042 -42.3813 5.55817 -51.0775 -143.632 -13.9303 1.88064 -0.0243382 -152.731 -18.3946 0.511822 128.033 -47.7615 10.3334 -40.9652 -42.9992 -3.43902 
238.411 72.1369 243.271 -108.887 16.2604 -67.2772 -112.63 9.6756 174.617 160.768 54.3516 -165.154 40.7177 -12.1943 6.32599 87.4315 -16.4911 4.8048 164.148 26.26 94.5078 -74.3924 45.467 5.37362 -143.691 -35.8086 139.548 137.555 27.8663 43.0544 -3.99361 16.4669 -91.8807 -6.3223 -8.47924 -4.74212 -17.9727 -8.67948 -4.3627 -40.5881 -6.66475 -7.07305 -20.5754 -6.66476 -7.07305 -92.7761 -70.0428 85.6973 -41.2016 8.10927 -17.8886 -144.918 40.5903 -50.9219 -18.2016 6.28705 -44.4634 161.6 -48.9443 -42.3437 8.05217 -52.5272 -140.662 -15.5665 1.79823 -0.0243371 -151.275 -15.2081 -0.141782 129.925 -45.531 11.665 -40.5495 -43.7955 -2.65903 
241.202 72.4245 245.817 -107.137 12.7914 -67.0913 -115.782 16.8139 174.666 162.335 47.8896 -166.796 48.9801 -10.2463 8.70999 80.3335 -12.9085 8.74379 164.434 27.0151 92.907 -73.9969 42.8797 9.59649 -141.419 -37.5533 146.303 132.558 31.1209 48.5523 -4.02398 16.4997 -92.5155 -6.4593 -8.73348 -6.01426 -18.1129 -8.98924 -5.62295 -40.6831 -6.52835 -8.35754 -20.6705 -6.52835 -8.35754 -91.758 -69.3425 86.6107 -42.6374 12.3735 -18.2776 -58.654 48.1952 -118.532 -23.2798 11.0258 -56.0162 162.857 -46.688 -42.4031 11.9999 -54.3422 -135.964 -17.8003 -0.60501 0.260016 -149.377 -12.759 -0.604255 132.555 -41.8324 13.342 -39.7698 -44.9058 -0.92202 
244.88 72.757 249.177 -104.92 8.34886 -66.6757 -119.431 24.7188 173.839 166.068 39.3209 -170.075 63.1067 -5.36676 13.4347 67.3027 -8.16674 15.324 165.696 27.5494 90.3192 -72.6838 40.3038 15.1741 -139.343 -39.5371 154.577 127.501 33.5154 53.8469 -4.04776 16.5031 -93.3382 -6.56508 -9.03341 -7.65188 -18.2247 -9.36052 -7.24684 -40.7201 -6.32858 -10.0012 -20.7075 -6.32856 -10.0012 -90.4702 -68.4332 87.7495 -44.4937 17.7953 -18.7002 -25.0143 25.2006 -139.941 -20.7145 11.5386 -64.5917 164.275 -43.8103 -42.6628 17.1484 -56.0197 -129.835 -20.5944 -3.67728 -4.11074 -147.352 -12.0755 -0.575629 135.427 -36.6617 14.8173 -38.5321 -46.0457 2.28632 
249.347 73.0746 253.255 -102.362 3.23973 -65.9684 -123.692 32.6266 171.291 170.011 29.9083 -175.044 81.9912 4.55839 18.1663 46.5107 -4.29806 22.1939 168.463 27.3674 86.673 -69.9548 38.6461 21.8715 -138.016 -41.8633 163.802 122.962 35.0887 58.4552 -4.05836 16.4525 -94.2953 -6.5889 -9.35154 -9.54299 -18.2582 -9.76074 -9.12388 -40.6458 -6.07413 -11.8888 -20.6332 -6.07414 -11.8888 -89.0119 -67.3631 89.0169 -46.7151 23.9957 -19.0914 -16.2769 14.1613 -142.851 -19.4773 11.4963 -67.6614 165.674 -40.5178 -43.1835 23.1242 -57.2064 -122.705 -24.4294 -7.51612 -10.1152 -145.197 -13.1009 0.0238749 140.447 -23.024 10.5172 -42.1453 -41.5821 18.9007 
254.517 73.3041 257.958 -99.574 -2.21599 -64.9473 -127.752 39.706 167.717 171.582 20.0899 -177.658 100.089 14.8279 19.3917 23.2543 -2.59591 27.1566 172.986 25.8061 82.3098 -65.1766 39.0671 29.0736 -137.743 -44.9433 173.718 119.099 36.0945 62.3215 -4.05413 16.3313 -95.326 -6.49281 -9.66953 -11.5633 -18.1755 -10.1659 -11.1308 -40.4233 -5.78593 -13.8966 -20.4106 -5.78593 -13.8966 -87.4975 -66.1902 90.3076 -49.2645 30.5869 -19.3856 -11.9572 7.63095 -143.321 -19.2957 11.7376 -69.2287 166.906 -37.0396 -43.9751 29.4145 -57.7078 -115.135 -29.4773 -11.3504 -16.7743 -142.757 -15.3233 1.1465 141.382 -15.3742 8.26715 -37.5405 -41.3047 29.6367 
